<?xml version="1.0" encoding="utf-8"?>
<!-- Generator: Adobe Illustrator 25.0.1, SVG Export Plug-In . SVG Version: 6.00 Build 0)  -->
<svg version="1.0" id="Layer_1" xmlns="http://www.w3.org/2000/svg" xmlns:xlink="http://www.w3.org/1999/xlink" x="0px" y="0px"
	 viewBox="0 0 4331.1 3061.3" style="enable-background:new 0 0 4331.1 3061.3;" xml:space="preserve">
<style type="text/css">
	.st0{fill:#DD1100;}
	.st1{fill:#FFFFFF;}
</style>
<g id="Page-1">
	<g id="mathematicaIcon">
		<g id="mathematicaSpikeyBackground">
			<path id="Shape" class="st0" d="M3354.3,1917l-344.7-386.4l344.7-386.4l-505.1-109.8l50.5-515.2l-473.5,208.3l-261.4-447
				l-260.1,447l-473.5-208.3l50.5,515.2l-505.1,109.8l344.7,386.4L976.8,1917l505.1,109.8l-50.5,515.2l473.5-208.3l261.4,447
				l260.1-447l474.7,208.3l-51.8-515.2L3354.3,1917z"/>
		</g>
		<path id="Shape_1_" class="st1" d="M2450.3,1144.3c0,0-113.6,72-290.4,73.2c-176.8,1.3-272.7-73.2-272.7-73.2s29,125-18.9,284.1
			c-29,96-83.3,181.8-159.1,247.5c0,0,157.8,18.9,266.4,101c108.6,82.1,188.1,231.1,188.1,231.1s68.2-143.9,181.8-228.5
			c113.6-84.6,275.3-102.3,275.3-102.3s-117.4-132.6-164.1-250C2411.2,1308.4,2450.3,1144.3,2450.3,1144.3z M2288.7,1699.9
			c-75.8,50.5-123.7,138.9-123.7,138.9c-34.1-53-77-99.7-127.5-137.6c-49.2-35.4-106.1-59.3-165.4-72c0,0,66.9-80.8,94.7-170.5
			c16.4-58.1,22.7-117.4,18.9-176.8c0,0,90.9,37.9,176.8,37.9c85.9,1.3,184.3-39.1,184.3-39.1s-22.7,101,6.3,183.1
			s106.1,164.1,106.1,164.1C2398.5,1643,2341.7,1667,2288.7,1699.9z M2648.5,1358.9c-30.3-99.7,55.6-569.4,55.6-569.4
			s-322,218.4-548,218.4s-529-218.4-529-218.4s99.7,340.9,39.1,559.3s-372.5,464.6-372.5,464.6s406.6,24,560.6,127.5
			c154,103.5,310.6,505.1,310.6,505.1s208.3-441.9,295.5-505.1c87.1-63.1,577-127.5,577-127.5S2678.8,1458.7,2648.5,1358.9
			L2648.5,1358.9z M2407.4,1865.3c-160.4,111.1-241.2,354.8-241.2,354.8s-119.9-267.7-252.5-358.6
			c-131.3-90.9-401.5-114.9-401.5-114.9s208.3-184.3,258.8-348.5s-8.8-420.5-8.8-420.5s223.5,137.6,396.5,137.6
			s411.6-137.6,411.6-137.6s-69.4,257.6-13.9,417.9c55.6,159.1,263.9,351,263.9,351S2567.7,1754.2,2407.4,1865.3L2407.4,1865.3z"/>
	</g>
</g>
</svg>